<svg xmlns="http://www.w3.org/2000/svg" viewBox="0 0 18 18">
  <defs>
    <mask id="locked-mic-cutouts">
      <rect width="18" height="18" fill="white"/>
      <rect x="7.3" y="3" width="3.4" height="0.85" rx="0.42" fill="black"/>
      <rect x="7.3" y="5.2" width="3.4" height="0.85" rx="0.42" fill="black"/>
      <rect x="7.3" y="7.4" width="3.4" height="0.85" rx="0.42" fill="black"/>
      <path d="M12.15 10.9V9.35c0-1.1.85-1.9 1.9-1.9s1.9.8 1.9 1.9v1.55" fill="none" stroke="black" stroke-linecap="round" stroke-linejoin="round" stroke-width="1.9"/>
      <rect x="10.25" y="8.55" width="7.35" height="7.95" rx="1.25" fill="black"/>
    </mask>
  </defs>
  <g fill="none" stroke="black" stroke-linecap="round" stroke-linejoin="round" mask="url(#locked-mic-cutouts)">
    <rect x="5.45" y="1.05" width="7.1" height="9.3" rx="3.45" fill="black" stroke="none"/>
    <path d="M4.35 7.25v3.18c0 1.36 1.96 2.2 4.65 2.2s4.65-.84 4.65-2.2V7.25" stroke-width="1.45"/>
    <path d="M9 12.15v2.85" stroke-width="1.45"/>
    <path d="M5.9 15.25h6.2" stroke-width="1.35"/>
  </g>
  <g fill="none" stroke="black" stroke-linecap="round" stroke-linejoin="round">
    <path d="M12.15 10.9V9.35c0-1.1.85-1.9 1.9-1.9s1.9.8 1.9 1.9v1.55" stroke-width="1.25"/>
    <rect x="10.95" y="10.95" width="6.1" height="4.35" rx="1.05" fill="black" stroke="none"/>
  </g>
</svg>
